<?xml version="1.0" encoding="utf-8"?>
<svg width="40" height="40" viewBox="0 0 40 40" fill="none" xmlns="http://www.w3.org/2000/svg">
  <ellipse style="stroke: rgb(0, 0, 0); fill: rgb(50, 66, 46);" cx="18.97" cy="19.565" rx="14.073" ry="13.661"/>
  <ellipse style="stroke: rgb(0, 0, 0); fill: rgb(222, 225, 230);" cx="22.86" cy="19.428" rx="13.341" ry="14.211"/>
  <path style="stroke: rgb(0, 0, 0); fill: rgb(50, 66, 46);" d="M 9.977 22.426 C 9.977 23.591 10.409 24.778 10.526 25.95 C 10.774 28.426 10.896 31.334 10.297 33.73 C 10.113 34.469 10.262 35.347 10.023 36.064 C 9.656 37.163 9.067 38.485 8.33 39.222 C 8.277 39.274 7.973 38.806 7.918 38.764 C 7.589 38.518 7.371 38.049 7.002 37.803 C 6.289 37.327 5.797 36.964 5.263 36.43 C 5.16 36.327 4.896 36.2 4.805 36.018 C 4.704 35.815 4.958 35.301 5.034 35.149 C 5.459 34.3 5.24 33.091 5.675 32.22 C 5.747 32.076 5.624 31.822 5.675 31.67 C 5.857 31.126 5.617 30.38 5.812 29.794 C 6.05 29.083 6.153 27.592 5.858 27.002 C 5.732 26.749 5.852 26.349 5.721 26.087 C 5.524 25.694 5.779 25.06 5.584 24.668 C 5.442 24.385 5.263 23.624 5.263 23.249"/>
  <path style="fill: rgb(216, 216, 216); stroke: rgb(0, 0, 0);" d="M 5.217 21.465 C 5.217 22.6 5.4 23.634 5.4 24.76"/>
  <path style="stroke: rgb(0, 0, 0); fill: rgb(51, 51, 117); stroke-opacity: 0.9; fill-opacity: 0.8;" d="M 18.426 24.763 L 18.689 14.073 L 31.907 18.602 L 18.426 24.763 Z"/>
</svg>